<svg width="115" height="116" viewBox="0 0 115 116" fill="none" xmlns="http://www.w3.org/2000/svg">
<g clip-path="url(#clip0_462_333)">
<path d="M97.1064 31.4924H88.0234V33.4924H97.1064V31.4924Z" fill="white"/>
<path d="M97.1064 38.3401H88.0234V40.3401H97.1064V38.3401Z" fill="white"/>
<path d="M41.6641 66.1858H12.707C12.1543 66.1858 11.707 66.6331 11.707 67.1858C11.707 67.7385 12.1543 68.1858 12.707 68.1858H41.6641C42.2168 68.1858 42.6641 67.7385 42.6641 67.1858C42.6641 66.6331 42.2168 66.1858 41.6641 66.1858Z" fill="white"/>
<path d="M47.9395 84.5852H51.1934C51.7461 84.5852 52.1934 84.1379 52.1934 83.5852C52.1934 83.0325 51.7461 82.5852 51.1934 82.5852H47.9395C47.3867 82.5852 46.9395 83.0325 46.9395 83.5852C46.9395 84.1379 47.3867 84.5852 47.9395 84.5852Z" fill="white"/>
<path d="M56.1406 84.5852H59.2519C59.8047 84.5852 60.2519 84.1379 60.2519 83.5852C60.2519 83.0325 59.8047 82.5852 59.2519 82.5852H56.1406C55.5879 82.5852 55.1406 83.0325 55.1406 83.5852C55.1406 84.1379 55.5879 84.5852 56.1406 84.5852Z" fill="white"/>
<path d="M51.4258 87.5989H48.1719C47.6191 87.5989 47.1719 88.0461 47.1719 88.5989C47.1719 89.1516 47.6191 89.5989 48.1719 89.5989H51.4258C51.9785 89.5989 52.4258 89.1516 52.4258 88.5989C52.4258 88.0461 51.9785 87.5989 51.4258 87.5989Z" fill="white"/>
<path d="M59.4746 87.5989H56.3633C55.8105 87.5989 55.3633 88.0461 55.3633 88.5989C55.3633 89.1516 55.8105 89.5989 56.3633 89.5989H59.4746C60.0273 89.5989 60.4746 89.1516 60.4746 88.5989C60.4746 88.0461 60.0273 87.5989 59.4746 87.5989Z" fill="white"/>
<path d="M90.5234 84.5852H93.7773C94.3301 84.5852 94.7773 84.1379 94.7773 83.5852C94.7773 83.0325 94.3301 82.5852 93.7773 82.5852H90.5234C89.9707 82.5852 89.5234 83.0325 89.5234 83.5852C89.5234 84.1379 89.9707 84.5852 90.5234 84.5852Z" fill="white"/>
<path d="M98.7227 84.5852H101.834C102.387 84.5852 102.834 84.1379 102.834 83.5852C102.834 83.0325 102.387 82.5852 101.834 82.5852H98.7227C98.1699 82.5852 97.7227 83.0325 97.7227 83.5852C97.7227 84.1379 98.1699 84.5852 98.7227 84.5852Z" fill="white"/>
<path d="M94.0098 87.5989H90.7559C90.2031 87.5989 89.7559 88.0461 89.7559 88.5989C89.7559 89.1516 90.2031 89.5989 90.7559 89.5989H94.0098C94.5625 89.5989 95.0098 89.1516 95.0098 88.5989C95.0098 88.0461 94.5625 87.5989 94.0098 87.5989Z" fill="white"/>
<path d="M102.056 87.5989H98.9453C98.3926 87.5989 97.9453 88.0461 97.9453 88.5989C97.9453 89.1516 98.3926 89.5989 98.9453 89.5989H102.056C102.608 89.5989 103.056 89.1516 103.056 88.5989C103.056 88.0461 102.608 87.5989 102.056 87.5989Z" fill="white"/>
<path d="M39.0176 34.9436C35.668 34.9436 32.668 36.7971 31.1621 39.7307C30.8848 39.6887 30.5732 39.6545 30.291 39.6545C26.8828 39.6545 24.1094 42.428 24.1094 45.8362C24.1094 46.3889 24.5566 46.8362 25.1094 46.8362C25.6621 46.8362 26.1094 46.3889 26.1094 45.8362C26.1094 43.5305 27.9854 41.6545 30.291 41.6545C30.6865 41.6545 31.3018 41.7834 31.5059 41.8342L32.3496 42.0403L32.6719 41.2346C33.7178 38.6282 36.209 36.9436 39.0176 36.9436C40.4746 36.9436 41.8652 37.3958 43.0381 38.2502C43.4844 38.5745 44.1094 38.4768 44.4356 38.0305C44.7607 37.5842 44.6621 36.9583 44.2158 36.6331C42.6982 35.5276 40.9004 34.9436 39.0176 34.9436Z" fill="white"/>
<path d="M75.918 18.7786C74.8486 18.7786 73.8301 19.1497 73.0107 19.8176C71.8076 18.9954 70.3848 18.55 68.9189 18.55C64.9102 18.55 61.6484 21.8118 61.6484 25.8206C61.6484 29.8293 64.9102 33.0901 68.9189 33.0901C72.1006 33.0901 74.8711 31.0286 75.8291 28.0706C78.4277 28.1497 80.5645 26.0168 80.5654 23.425C80.5654 20.8625 78.4805 18.7786 75.918 18.7786ZM75.918 26.0715C75.7334 26.0715 75.5342 26.0452 75.3105 25.9924L74.2871 25.7483L74.0957 26.7834C73.6348 29.2786 71.458 31.0901 68.9189 31.0901C66.0127 31.0901 63.6484 28.7258 63.6484 25.8206C63.6484 22.9143 66.0127 20.55 68.9189 20.55C70.209 20.55 71.4541 21.0276 72.4248 21.8948L73.209 22.5959L73.8691 21.7756C74.3799 21.1418 75.127 20.7786 75.918 20.7786C77.3779 20.7786 78.5654 21.9661 78.5654 23.425C78.5654 24.884 77.3779 26.0715 75.918 26.0715Z" fill="white"/>
<path d="M103.815 74.7981L98.1057 74.8041V27.0364C98.1057 25.8147 97.1164 24.8206 95.8997 24.8206H89.2278C88.012 24.8206 87.0227 25.8147 87.0227 27.0364V74.8158L65.7795 74.8381V65.2483L56.0842 72.137V65.2483L43.7546 74.0074L42.0364 59.595H48.0618C49.427 62.0247 52.0168 63.5627 54.8293 63.5627H59.6956C63.9768 63.5627 67.4592 60.0803 67.4592 55.7991C67.4592 53.7659 66.6623 51.8293 65.2512 50.3821C65.7747 48.9036 66.0403 47.3606 66.0403 45.7864C66.0403 38.1721 59.8459 31.9778 52.2317 31.9778H49.72C47.468 26.5217 42.1135 22.9036 36.178 22.9036C29.2844 22.9036 23.3332 27.718 21.8655 34.4114C18.1018 36.9954 15.8674 41.2161 15.8674 45.7864C15.8674 48.1849 16.4851 50.4969 17.6487 52.5579H15.5715C14.3567 52.5579 13.3215 53.5627 13.1643 54.8938L8.37133 95.0999C8.27172 95.9299 8.51782 96.7463 9.04516 97.342C9.50414 97.8586 10.1194 98.1438 10.7786 98.1438H43.8616C44.0408 98.1438 44.2161 98.1187 44.3865 98.0774L44.3938 98.1438H104.226C105.563 98.1438 106.651 97.0569 106.651 95.72V77.634C106.651 76.0706 105.378 74.7981 103.815 74.7981ZM89.0227 27.0364C89.0227 26.9172 89.1145 26.8206 89.2278 26.8206H95.8997C96.0129 26.8206 96.1057 26.9172 96.1057 27.0364V74.7981H90.7844V74.8118L89.0227 74.8137V27.0364ZM17.8674 45.7864C17.8674 41.7571 19.8997 38.0452 23.3039 35.8567L23.6653 35.6243L23.7454 35.2014C24.8733 29.2346 30.1018 24.9036 36.178 24.9036C41.508 24.9036 46.2961 28.2834 48.092 33.3137L48.3284 33.9778H52.2317C58.7434 33.9778 64.0403 39.2747 64.0403 45.7864C64.0403 47.3303 63.7414 48.8401 63.1526 50.2727L62.8772 50.9426L63.428 51.4133C64.719 52.5139 65.4592 54.1125 65.4592 55.7991C65.4592 58.9768 62.8733 61.5627 59.6955 61.5627H54.8293C52.5784 61.5627 50.5198 60.2356 49.5852 58.1809L49.3186 57.595H41.7976L41.4758 54.8948C41.3186 53.5627 40.2834 52.5579 39.0686 52.5579H20.0037C18.6072 50.5662 17.8674 48.2268 17.8674 45.7864ZM44.0989 96.0149C44.0461 96.0735 43.9631 96.1438 43.8616 96.1438H10.7786C10.677 96.1438 10.594 96.0735 10.5413 96.0149C10.4289 95.887 10.3206 95.6428 10.3577 95.3372L15.1506 55.1292C15.1907 54.7874 15.4006 54.5579 15.5715 54.5579H39.0686C39.2395 54.5579 39.4495 54.7874 39.4895 55.1301L41.9739 75.9646L44.1511 95.9189C44.1321 95.9485 44.1189 95.9924 44.0989 96.0149ZM63.7795 96.1438H46.1985C46.2786 95.8085 46.3122 95.4578 46.2698 95.1008L44.0247 76.2697L54.0842 69.1233V76.012L63.7795 69.1233L63.7795 96.1438ZM104.651 95.72C104.651 95.9534 104.46 96.1438 104.226 96.1438H65.7795V76.8381L103.815 76.7981C104.276 76.7981 104.651 77.1731 104.651 77.634V95.72Z" fill="#0C334E"/>
</g>
<defs>
<clipPath id="clip0_462_333">
<rect width="115" height="115" fill="white" transform="translate(0 0.846924)"/>
</clipPath>
</defs>
</svg>
